<svg xmlns="http://www.w3.org/2000/svg" width="295.592" height="24.836" viewBox="0 0 295.592 24.836">
  <g id="Group_1256" data-name="Group 1256" transform="translate(-30.179 -988.844)">
    <path id="Path_315" data-name="Path 315" d="M569.294,989.078h3.6l-3.955,24.756h-4.944l-2.768-18.587-2.728,18.587h-4.944L549.6,989.078h3.678l2.768,21.513,3.2-21.513H563.2l3.2,21.513Z" transform="translate(-431.205 -0.194)" fill="#62626c"/>
    <path id="Path_316" data-name="Path 316" d="M778.833,989.078v2.887H774.68v21.869h-3.559V991.965h-4.152v-2.887Z" transform="translate(-611.656 -0.194)" fill="#62626c"/>
    <path id="Path_317" data-name="Path 317" d="M41.766,996.315h-3.6v-3.282a1.292,1.292,0,0,0-.237-.929,1.47,1.47,0,0,0-.949-.217H34.964a1.471,1.471,0,0,0-.949.217,1.292,1.292,0,0,0-.237.929v16.886a1.29,1.29,0,0,0,.237.929,1.464,1.464,0,0,0,.949.217h2.017a1.463,1.463,0,0,0,.949-.217,1.29,1.29,0,0,0,.237-.929v-6.051H36.19V1001.1h5.576v9.254q0,3.52-3.678,3.52H33.857q-3.678,0-3.678-3.52v-17.8q0-3.48,3.678-3.48h4.231q3.678,0,3.678,3.48Z" transform="translate(0 -0.194)" fill="#62626c"/>
    <path id="Path_318" data-name="Path 318" d="M191.1,1003.829v10.005h-3.559V989.078h8.107q3.678,0,3.678,3.48v7.751q0,3.006-2.649,3.44l3.915,10.084h-3.836l-3.718-10.005Zm0-11.864v9.017h3.48a1.465,1.465,0,0,0,.949-.218,1.29,1.29,0,0,0,.237-.929v-6.723a1.292,1.292,0,0,0-.237-.93,1.47,1.47,0,0,0-.949-.217Z" transform="translate(-130.633 -0.194)" fill="#62626c"/>
    <path id="Path_319" data-name="Path 319" d="M929.513,1002.959h5.26v10.875h3.559V989.078h-3.559v10.994h-5.26V989.078h-3.559v24.756h3.559Z" transform="translate(-743.64 -0.194)" fill="#62626c"/>
    <path id="Path_320" data-name="Path 320" d="M1710.9,1010.947h7.158v2.887H1707.3V989.078h10.48v2.887H1710.9V999.6h5.695v2.887H1710.9Z" transform="translate(-1392.283 -0.194)" fill="#62626c"/>
    <path id="Path_321" data-name="Path 321" d="M1095.725,1009.567v-6.051a.9.9,0,0,0-1.147-1.147h-2.927q-3.6,0-3.6-3.52v-6.525q0-3.48,3.678-3.48h3.875q3.678,0,3.678,3.48v3.638h-3.6v-3.085a1.293,1.293,0,0,0-.238-.93,1.468,1.468,0,0,0-.949-.217h-1.661a1.469,1.469,0,0,0-.949.217,1.292,1.292,0,0,0-.238.93v5.5a1.289,1.289,0,0,0,.238.929,1.463,1.463,0,0,0,.949.218h2.886q3.638,0,3.639,3.48v7.118q0,3.48-3.718,3.48h-3.836q-3.678,0-3.678-3.48v-3.639h3.6v3.085a1.292,1.292,0,0,0,.237.929,1.466,1.466,0,0,0,.949.217h1.661a.9.9,0,0,0,1.147-1.147Z" transform="translate(-878.209 0)" fill="#62626c"/>
    <path id="Path_322" data-name="Path 322" d="M1242.781,988.844h8.107q3.678,0,3.678,3.48v8.226q0,3.48-3.678,3.48h-4.548v9.57h-3.559Zm8.226,11.152v-7.118a1.293,1.293,0,0,0-.237-.93,1.47,1.47,0,0,0-.949-.217h-3.48v9.451h3.48a.95.95,0,0,0,1.187-1.186Z" transform="translate(-1006.658 0)" fill="#62626c"/>
    <path id="Path_323" data-name="Path 323" d="M1394.822,1013.717l-.989-5.734h-5.22l-.91,5.734h-3.559l4.389-24.756h5.181l4.706,24.756Zm-5.774-8.621h4.311l-2.254-13.05Z" transform="translate(-1124.014 -0.097)" fill="#62626c"/>
    <path id="Path_324" data-name="Path 324" d="M1560.935,996.6H1557.3v-3.8a.905.905,0,0,0-1.147-1.147h-2.017a1.471,1.471,0,0,0-.949.217,1.292,1.292,0,0,0-.237.929v16.886a1.29,1.29,0,0,0,.237.929,1.465,1.465,0,0,0,.949.217h2.017a.9.9,0,0,0,1.147-1.147v-3.757h3.638v4.192q0,3.52-3.717,3.52h-4.192q-3.678,0-3.678-3.52v-17.8q0-3.48,3.678-3.48h4.192q3.717,0,3.717,3.48Z" transform="translate(-1261.159 0)" fill="#62626c"/>
    <g id="Group_1255" data-name="Group 1255" transform="translate(81.777 989.186)">
      <path id="Path_325" data-name="Path 325" d="M364.616,998.293l-1.9,2.64,2.027,2.536,1.9-2.64Z" transform="translate(-357.838 -997.03)" fill="#f16144"/>
      <circle id="Ellipse_87" data-name="Ellipse 87" cx="2.095" cy="2.095" r="2.095" transform="translate(1.069 6.256)" fill="#45e2c8"/>
      <path id="Path_326" data-name="Path 326" d="M435.647,1004.746l-2.075-.581-1.536,1.485.541,2.066,2.075.581,1.536-1.485Z" transform="translate(-415.385 -1001.904)" fill="#45e2c8"/>
      <rect id="Rectangle_264" data-name="Rectangle 264" width="3.742" height="3.742" transform="matrix(0.193, -0.981, 0.981, 0.193, 10.603, 3.672)" fill="#fea0b5"/>
      <path id="Path_327" data-name="Path 327" d="M451.449,1033.213l4.429.7-1.675-3.775Z" transform="translate(-431.5 -1023.465)" fill="#f16144"/>
      <path id="Path_328" data-name="Path 328" d="M346.387,1069.683a7.606,7.606,0,0,1-7.6-7.6h-4.793a12.4,12.4,0,0,0,24.8,0h-4.794A7.6,7.6,0,0,1,346.387,1069.683Z" transform="translate(-333.989 -1049.982)" fill="#d73660"/>
    </g>
  </g>
</svg>
